<svg width="17" height="13" viewBox="0 0 17 13" fill="none" xmlns="http://www.w3.org/2000/svg">
<path fill-rule="evenodd" clip-rule="evenodd" d="M14.3384 0.407033C14.6298 0.147236 15.0233 0.0010235 15.4337 5.35301e-06C15.8441 -0.0010128 16.2385 0.143245 16.5315 0.401592C16.8246 0.659939 16.9928 1.01162 16.9998 1.38059C17.0068 1.74957 16.852 2.10619 16.5689 2.37337L8.25498 11.7182C8.1121 11.8565 7.93964 11.9676 7.74793 12.0447C7.55622 12.1218 7.34918 12.1633 7.13921 12.1668C6.92924 12.1703 6.72064 12.1357 6.52589 12.065C6.33113 11.9944 6.15422 11.8891 6.00573 11.7556L0.497144 6.80044C0.343681 6.67186 0.220592 6.5168 0.135221 6.34451C0.0498491 6.17222 0.00394349 5.98624 0.000243086 5.79765C-0.00345732 5.60906 0.0351234 5.42174 0.113683 5.24685C0.192242 5.07196 0.309171 4.91309 0.457494 4.77972C0.605817 4.64635 0.782496 4.54121 0.97699 4.47057C1.17148 4.39993 1.37981 4.36524 1.58954 4.36856C1.79927 4.37189 2.0061 4.41317 2.1977 4.48993C2.3893 4.5667 2.56175 4.67738 2.70474 4.81537L7.0658 8.73494L14.2988 0.448233C14.3117 0.433726 14.3256 0.419965 14.3405 0.407033H14.3384Z" fill="#3CE0A0"/>
</svg>
